<svg width="111" height="30" viewBox="0 0 111 30" fill="none" xmlns="http://www.w3.org/2000/svg">
<g clip-path="url(#clip0)">
<path fill-rule="evenodd" clip-rule="evenodd" d="M32.6328 22.1837V8.59236H34.388L42.7304 19.5301V8.59236H44.3989V22.1837H42.6437L34.3013 11.138V22.1837H32.6328ZM57.9851 21.6444C56.88 22.0543 55.6882 22.27 54.4315 22.27C49.491 22.27 47.0208 19.9185 47.0208 15.1939C47.0208 10.7281 49.4043 8.48449 54.1714 8.48449C55.5366 8.48449 56.815 8.67866 57.9851 9.04541V10.5556C56.815 10.1025 55.6016 9.88677 54.3664 9.88677C50.6394 9.88677 48.7759 11.6558 48.7759 15.1507C48.7759 18.9261 50.6178 20.803 54.2798 20.803C54.8648 20.803 55.5149 20.7167 56.2299 20.5657V16.0137H57.9851V21.6444ZM60.802 16.9413V8.59236H62.5572V16.9413C62.5572 19.5517 63.8573 20.8677 66.4792 20.8677C69.0794 20.8677 70.4012 19.5517 70.4012 16.9413V8.59236H72.1564V16.9413C72.1564 20.501 70.2712 22.2916 66.4792 22.2916C62.6872 22.2916 60.802 20.501 60.802 16.9413ZM77.0535 8.59236V20.7598H84.2042V22.1837H75.2983V8.59236H77.0535ZM86.7394 22.1837H84.8975L91.6798 6.80176L98.4621 22.1837H96.5119L94.7568 17.9121H90.2497L90.7264 16.4883H94.1717L91.6148 10.3398L86.7394 22.1837ZM100.347 22.1837V8.59236H106.176C108.776 8.59236 110.076 9.67104 110.076 11.85C110.076 13.619 108.798 14.935 106.263 15.7764L110.943 22.1837H108.625L104.291 16.0784V14.935C106.891 14.5251 108.213 13.5327 108.213 11.9363C108.213 10.685 107.498 10.0594 106.046 10.0594H102.146V22.1837H100.347Z" fill="#C7C7C7"/>
<path fill-rule="evenodd" clip-rule="evenodd" d="M0 4.96777L13.9763 0.00585938L28.3209 4.88148L26.0024 23.2837L13.9763 29.9068L2.14519 23.37L0 4.96777Z" fill="#989898"/>
<path fill-rule="evenodd" clip-rule="evenodd" d="M28.3212 4.88148L13.9766 0.00585938V29.9068L26.0027 23.2837L28.3212 4.88148Z" fill="#C7C7C7"/>
<path fill-rule="evenodd" clip-rule="evenodd" d="M13.9979 3.50098L5.28711 22.7877L8.5374 22.723L10.2926 18.3651H18.0716L19.9784 22.7661L23.0771 22.8309L13.9979 3.50098ZM14.0196 9.69258L16.9665 15.8195H11.441L14.0196 9.69258Z" fill="black"/>
</g>
<defs>
<clipPath id="clip0">
<rect width="110.943" height="30" fill="white"/>
</clipPath>
</defs>
</svg>
