<svg width="18" height="11" viewBox="0 0 18 11" fill="none" xmlns="http://www.w3.org/2000/svg">
<path d="M5.58225 0.0126953C6.0615 0.0126953 6.50475 0.0501953 6.90975 0.161195C7.27726 0.228729 7.62806 0.367318 7.9425 0.569195C8.238 0.754445 8.45925 1.0147 8.60625 1.34845C8.754 1.6822 8.8275 2.09095 8.8275 2.5357C8.8275 3.05544 8.71725 3.50019 8.45925 3.83394C8.238 4.16844 7.869 4.46469 7.4265 4.68745C8.0535 4.87345 8.53275 5.2072 8.8275 5.65195C9.123 6.09745 9.3075 6.65394 9.3075 7.28469C9.3075 7.80444 9.1965 8.24919 9.012 8.62044C8.8275 8.99169 8.53275 9.32544 8.2005 9.54819C7.83959 9.78696 7.44063 9.96248 7.02075 10.0672C6.57825 10.1789 6.13575 10.2532 5.69325 10.2532H0.75V0.0126953H5.58225ZM5.28675 4.1677C5.6925 4.1677 6.02475 4.05669 6.28275 3.87144C6.54075 3.68619 6.65175 3.3517 6.65175 2.9437C6.65175 2.72095 6.61425 2.4982 6.54075 2.35045C6.46725 2.20195 6.35625 2.0902 6.20925 1.9792C6.0615 1.90495 5.91375 1.8307 5.72925 1.79395C5.54475 1.75645 5.361 1.75645 5.139 1.75645H3V4.16845H5.2875L5.28675 4.1677ZM5.39775 8.5462C5.619 8.5462 5.84025 8.50869 6.02475 8.47194C6.21103 8.43652 6.38721 8.36047 6.54075 8.2492C6.69104 8.14062 6.81677 8.0016 6.90975 7.84119C6.98325 7.65594 7.0575 7.4332 7.0575 7.1737C7.0575 6.65394 6.90975 6.28269 6.615 6.02319C6.3195 5.80044 5.91375 5.68944 5.4345 5.68944H3V8.54694H5.39775V8.5462ZM12.5167 8.50869C12.8115 8.80569 13.254 8.95419 13.8442 8.95419C14.25 8.95419 14.619 8.84319 14.9137 8.65794C15.2093 8.43519 15.3937 8.21244 15.4672 7.98969H17.2747C16.9792 8.87994 16.5368 9.51069 15.9473 9.91869C15.3563 10.2899 14.6558 10.5127 13.8075 10.5127C13.2648 10.5143 12.7266 10.4136 12.2213 10.2157C11.7665 10.0451 11.361 9.7648 11.0407 9.39969C10.6982 9.05813 10.445 8.63751 10.3035 8.17494C10.119 7.69269 10.0448 7.1737 10.0448 6.5797C10.0448 6.0232 10.119 5.50419 10.3035 5.02119C10.4809 4.55626 10.7434 4.12846 11.0775 3.75969C11.4097 3.42594 11.8155 3.1297 12.258 2.9437C12.7505 2.74574 13.2767 2.64489 13.8075 2.6467C14.4345 2.6467 14.988 2.75845 15.4672 3.01795C15.9472 3.27745 16.3155 3.57445 16.611 4.01995C16.9124 4.44784 17.137 4.92497 17.2747 5.42994C17.3483 5.94895 17.385 6.46869 17.3483 7.06194H12C12 7.65594 12.2212 8.21245 12.5167 8.50945V8.50869ZM14.8403 4.61319C14.5823 4.3537 14.1765 4.20519 13.6965 4.20519C13.365 4.20519 13.1062 4.27945 12.885 4.39045C12.6638 4.5022 12.5168 4.6507 12.369 4.7992C12.2332 4.94264 12.1434 5.12336 12.111 5.31819C12.0735 5.50419 12.0367 5.65195 12.0367 5.80045H15.3563C15.2828 5.24395 15.0983 4.87345 14.8403 4.61319ZM11.5942 0.717695H15.7252V1.7197H11.595V0.717695H11.5942Z" fill="#86868B"/>
</svg>
