<svg width="123" height="30" viewBox="0 0 123 30" fill="none" xmlns="http://www.w3.org/2000/svg">
<path fill-rule="evenodd" clip-rule="evenodd" d="M27.3008 25.2133V4.5193H33.057C34.5852 4.5193 36.0876 4.6291 37.1057 6.03706C37.9209 7.16842 38.048 8.35469 38.048 9.76195C38.048 11.5556 37.6915 13.3214 35.7561 14.0935V14.1491C37.7687 14.4528 38.5317 16.2736 38.5317 18.9498C38.5317 19.8053 38.481 20.6607 38.2781 21.4884C37.5136 24.1097 36.1383 25.2133 33.5921 25.2133H27.3008ZM31.5288 12.8795C32.3954 12.8795 33.5156 12.9351 34.0758 12.1616C34.4072 11.6383 34.458 10.9204 34.458 9.92665C34.458 8.38179 34.1522 7.60902 32.5219 7.55412H30.8658V12.8795H31.5288ZM31.6303 22.1778C32.369 22.1778 33.1334 22.2612 33.77 21.9582C34.7373 21.4884 34.8645 20.1361 34.8645 19.0881C34.8645 16.8531 34.458 15.915 32.2411 15.915H30.8658V22.1785H31.6303V22.1778ZM39.9091 4.5881H43.0231V25.214H39.9091V4.5881ZM51.6001 22.9381H51.5508C51.049 24.7533 50.0976 25.5921 48.5194 25.6205C45.9391 25.6205 45.363 24.1841 45.363 21.6378V9.9336H48.6202V20.3918C48.6202 21.0687 48.5945 21.8268 48.9454 22.4231C49.2213 22.749 49.5222 22.9103 49.9475 22.9103C51.475 22.9103 51.45 21.0416 51.45 19.8497V9.9336H54.7058V25.2133H51.6001V22.9381ZM56.9115 15.1895C56.7621 11.5862 58.4619 9.52775 61.6628 9.52775C66.1869 9.52775 66.6616 12.0747 66.6616 16.2458V18.3049H60.1611V20.5273C60.1861 22.5315 60.8866 22.9103 61.8609 22.9103C63.0611 22.9103 63.4106 21.9631 63.362 20.0395H66.6115C66.7366 23.453 65.4364 25.6205 62.1118 25.6205C58.3619 25.6205 56.8365 23.6962 56.9108 19.1993V15.1895H56.9115ZM63.4113 15.5953V14.268C63.387 12.7238 63.0124 12.2359 61.7122 12.2359C60.0874 12.2359 60.1618 13.5904 60.1618 14.9726V15.5953H63.4113ZM75.0954 25.2675C73.251 25.5121 69.7381 25.7005 69.7381 22.8561V12.507H67.8499V9.9336H69.7137V5.73475H72.8521V9.9336H75.0961V12.507H72.8521V21.9902C72.923 22.6406 74.7118 22.5586 75.0961 22.5044V25.2675H75.0954ZM76.3699 18.1159C76.3956 12.8871 76.4456 9.52775 81.4179 9.52775C86.3138 9.52775 86.3381 12.8871 86.3638 18.1159C86.3882 23.4259 85.6786 25.7005 81.4179 25.6205C77.0808 25.7005 76.3449 23.4259 76.3699 18.1159ZM79.6667 20.2278C79.6667 22.0979 79.8189 22.9096 81.4179 22.9096C82.9392 22.9096 83.067 22.0979 83.067 20.2278V15.1345C83.067 13.6988 83.067 12.2366 81.4179 12.2366C79.6667 12.2366 79.6667 13.6988 79.6667 15.1345V20.2278ZM88.015 18.1159C88.0407 12.8871 88.0908 9.52775 93.0109 9.52775C97.8554 9.52775 97.8825 12.8871 97.9068 18.1159C97.9311 23.4259 97.2278 25.7005 93.0109 25.6205C88.7183 25.7005 87.9893 23.4259 88.015 18.1159ZM91.2784 20.2278C91.2784 22.0979 91.4293 22.9096 93.0116 22.9096C94.5183 22.9096 94.6434 22.0979 94.6434 20.2278V15.1345C94.6434 13.6988 94.6434 12.2366 93.0116 12.2366C91.2785 12.2366 91.2784 13.6988 91.2784 15.1345V20.2278ZM106.017 25.2675C104.173 25.5121 100.659 25.7005 100.659 22.8561V12.507H99.0813V9.9336H100.634V5.73475H103.772V9.9336H106.017V12.507H103.772V21.9902C103.845 22.6406 105.633 22.5586 106.017 22.5044V25.2675H106.017ZM108.101 25.2133V4.62146H111.425V11.5049H111.476C112.421 9.71608 113.751 9.52775 114.468 9.52775C116.36 9.52775 117.894 10.6932 117.792 13.4285V25.2133H114.468V14.7558C114.468 13.2658 114.314 12.2908 113.062 12.2366C111.808 12.1824 111.373 13.4285 111.425 15.0546V25.2133H108.101ZM117.55 4.41992H119.437V4.85079H118.777V7.35397H118.213V4.85079H117.55V4.41992ZM120.335 7.35397H119.772V4.41992H120.67L120.975 5.78131C121.022 6.00439 121.055 6.23094 121.079 6.45819H121.087C121.114 6.1684 121.136 5.97312 121.177 5.78131L121.48 4.41992H122.376V7.35397H121.811V6.43178C121.811 5.84873 121.824 5.26567 121.859 4.68191H121.85L121.245 7.35397H120.902L120.308 4.68191H120.288C120.324 5.26497 120.335 5.84873 120.335 6.43178V7.35397Z" fill="#989898"/>
<path fill-rule="evenodd" clip-rule="evenodd" d="M10.7415 0C5.04228 0.113971 1.11169 3.18006 0.596739 8.61452C0.425783 10.4221 0.29166 12.272 0.240234 14.0768V17.047C0.329187 19.7461 0.684996 22.2152 1.48835 24.118C3.01305 27.7338 5.66772 29.8971 10.419 30H11.1717C16.399 29.8812 19.7861 28.3954 21.5082 22.3966C23.231 16.3965 21.9829 7.78198 20.3796 4.75341C18.7757 1.72277 16.2809 0.0959018 11.4093 0.000694561H10.7415V0Z" fill="#C7C7C7"/>
<path fill-rule="evenodd" clip-rule="evenodd" d="M18.0323 20.2254L12.7751 14.9681L18.0024 9.74077L10.2788 2.13672V12.4733L5.91321 8.10627L4.33848 9.68031L9.68397 15.0279L4.30859 20.4033L5.88333 21.9773L10.2788 17.5818V27.9774L18.0323 20.2254ZM12.2997 7.06733L14.9725 9.80054L12.2997 12.4733V7.06733ZM12.2997 17.4039L14.9725 20.1364L12.2997 22.8105V17.4039Z" fill="black"/>
</svg>
