<svg width="41" height="40" viewBox="0 0 41 40" fill="none" xmlns="http://www.w3.org/2000/svg">
<path d="M20.0964 22.7279C21.5691 22.7279 22.763 21.534 22.763 20.0612C22.763 18.5884 21.5691 17.3945 20.0964 17.3945C18.6236 17.3945 17.4297 18.5884 17.4297 20.0612C17.4297 21.534 18.6236 22.7279 20.0964 22.7279Z" fill="url(#paint0_radial)"/>
<path d="M20.0941 14.5391C17.0465 14.5391 14.5703 17.0153 14.5703 20.0629C14.5703 22.1581 15.7449 23.9676 17.4275 24.92V24.2216C16.0624 23.3327 15.1735 21.8089 15.1735 20.0946C15.1735 17.3645 17.3957 15.174 20.0941 15.174C22.7925 15.174 25.0148 17.3962 25.0148 20.0946C25.0148 21.8406 24.1259 23.3645 22.7608 24.2216V24.92C24.4751 23.9676 25.6179 22.1581 25.6179 20.0629C25.6179 17.0153 23.1417 14.5391 20.0941 14.5391Z" fill="url(#paint1_radial)"/>
<path d="M20.0958 11.6514C15.4291 11.6514 11.6514 15.4291 11.6514 20.0958C11.6514 23.8101 14.0641 26.9847 17.4291 28.0958V27.4609C14.4133 26.3815 12.2545 23.4926 12.2545 20.0958C12.2545 15.7466 15.7784 12.2545 20.0958 12.2545C24.4133 12.2545 27.9371 15.7466 27.9371 20.0641C27.9371 23.4609 25.7784 26.3498 22.7625 27.4291V28.0641C26.1276 26.953 28.5403 23.7784 28.5403 20.0641C28.5403 15.4291 24.7625 11.6514 20.0958 11.6514Z" fill="url(#paint2_radial)"/>
<path d="M20.0946 8.69824C13.8406 8.69824 8.72949 13.8094 8.72949 20.0633C8.72949 25.3967 12.4438 29.9046 17.4279 31.1109V30.476C12.793 29.3014 9.33267 25.0792 9.33267 20.0633C9.33267 14.1586 14.1581 9.30142 20.0946 9.30142C26.0311 9.30142 30.8565 14.1268 30.8565 20.0633C30.8565 25.0792 27.3962 29.3014 22.7612 30.476V31.1109C27.7454 29.9046 31.4597 25.3967 31.4597 20.0633C31.4597 13.8094 26.3485 8.69824 20.0946 8.69824Z" fill="url(#paint3_radial)"/>
<path d="M20.0948 5.84082C12.2218 5.84082 5.84082 12.2218 5.84082 20.0948C5.84082 27.0472 10.8249 32.8567 17.4281 34.0948V33.4916C11.1742 32.2218 6.44399 26.698 6.44399 20.063C6.44399 12.5392 12.571 6.41225 20.0948 6.41225C27.6186 6.41225 33.7456 12.5392 33.7456 20.063C33.7456 26.6662 29.0154 32.19 22.7615 33.4599V34.063C29.3646 32.8249 34.3488 27.0154 34.3488 20.063C34.3488 12.2218 27.9678 5.84082 20.0948 5.84082Z" fill="url(#paint4_radial)"/>
<path d="M20.096 2.91895C10.6357 2.91895 2.95312 10.6015 2.95312 20.0618C2.95312 28.6015 9.23884 35.7126 17.4611 37.0142V36.411C9.58805 35.1412 3.5563 28.284 3.5563 20.0618C3.5563 10.9189 10.9849 3.52212 20.096 3.52212C29.2388 3.52212 36.6357 10.9507 36.6357 20.0618C36.6357 28.284 30.6039 35.1094 22.7626 36.411V37.0142C30.9531 35.7443 37.2706 28.6332 37.2706 20.0618C37.2388 10.6015 29.5563 2.91895 20.096 2.91895Z" fill="url(#paint5_radial)"/>
<path d="M20.0952 0C9.01587 0 0 9.01587 0 20.0952C0 30.254 7.5873 38.6984 17.4286 40V39.3968C7.93651 38.0952 0.603175 29.9365 0.603175 20.0952C0.603175 9.36508 9.33333 0.603175 20.0952 0.603175C30.8254 0.603175 39.5873 9.33333 39.5873 20.0952C39.5873 29.9365 32.254 38.0952 22.7619 39.3968V40C32.5714 38.6984 40.1905 30.254 40.1905 20.0952C40.1905 9.01587 31.1746 0 20.0952 0Z" fill="url(#paint6_radial)"/>
<defs>
<radialGradient id="paint0_radial" cx="0" cy="0" r="1" gradientUnits="userSpaceOnUse" gradientTransform="translate(20.0964 22.7244) scale(3.78478 3.80281)">
<stop stop-color="#989898"/>
<stop offset="1" stop-color="#C7C7C7"/>
</radialGradient>
<radialGradient id="paint1_radial" cx="0" cy="0" r="1" gradientUnits="userSpaceOnUse" gradientTransform="translate(20.0941 24.9132) scale(7.83991 7.40189)">
<stop stop-color="#989898"/>
<stop offset="1" stop-color="#C7C7C7"/>
</radialGradient>
<radialGradient id="paint2_radial" cx="0" cy="0" r="1" gradientUnits="userSpaceOnUse" gradientTransform="translate(20.0958 28.0851) scale(11.9851 11.7253)">
<stop stop-color="#989898"/>
<stop offset="1" stop-color="#C7C7C7"/>
</radialGradient>
<radialGradient id="paint3_radial" cx="0" cy="0" r="1" gradientUnits="userSpaceOnUse" gradientTransform="translate(20.0946 31.0963) scale(16.1304 15.9808)">
<stop stop-color="#989898"/>
<stop offset="1" stop-color="#C7C7C7"/>
</radialGradient>
<radialGradient id="paint4_radial" cx="0" cy="0" r="1" gradientUnits="userSpaceOnUse" gradientTransform="translate(20.0948 34.0764) scale(20.2306 20.1458)">
<stop stop-color="#989898"/>
<stop offset="1" stop-color="#C7C7C7"/>
</radialGradient>
<radialGradient id="paint5_radial" cx="0" cy="0" r="1" gradientUnits="userSpaceOnUse" gradientTransform="translate(20.1119 36.9919) scale(24.3533 24.3108)">
<stop stop-color="#989898"/>
<stop offset="1" stop-color="#C7C7C7"/>
</radialGradient>
<radialGradient id="paint6_radial" cx="0" cy="0" r="1" gradientUnits="userSpaceOnUse" gradientTransform="translate(20.0952 39.9739) scale(28.5211)">
<stop stop-color="#989898"/>
<stop offset="1" stop-color="#C7C7C7"/>
</radialGradient>
</defs>
</svg>
