<svg width="54" height="40" viewBox="0 0 54 40" fill="none" xmlns="http://www.w3.org/2000/svg">
<path d="M33.4626 18.4329L25.2955 26.5854C27.52 27.1111 29.9647 26.4996 31.6895 24.7511C33.3981 23.0294 33.9892 20.6212 33.4626 18.4329ZM22.0395 15.2469C20.3362 16.974 19.7452 19.3715 20.2717 21.5652L28.4334 13.418C26.209 12.887 23.775 13.4984 22.0395 15.2469ZM43.4888 8.42452C42.8977 7.55563 42.2261 6.72965 41.4685 5.94657L41.3234 5.79639C41.3234 5.79103 41.3181 5.79103 41.3181 5.79103L41.2106 5.68376C41.2052 5.6784 41.2052 5.6784 41.1998 5.67303L41.1139 5.58722C33.339 -2.0719 20.6532 -1.82518 12.7817 6.1343C12.7064 6.20939 12.6366 6.28447 12.5614 6.35956C5.79666 13.4126 5.01219 23.9948 10.2402 31.5896C10.8796 32.5175 11.605 33.3971 12.4217 34.2231C12.4378 34.2392 12.4539 34.2606 12.4646 34.2714C12.4808 34.2875 12.5023 34.3089 12.5184 34.3196C12.5237 34.325 12.5237 34.325 12.5291 34.3304C12.556 34.3572 12.5829 34.384 12.6097 34.4108C20.3846 42.0699 33.0704 41.8286 40.9473 33.8637C40.9903 33.8208 41.0387 33.7672 41.0816 33.7243C41.0924 33.7136 41.1031 33.7082 41.1139 33.6975C47.9269 26.6552 48.7329 16.0461 43.4888 8.42452ZM36.4124 28.3715L36.3802 28.409L36.1868 28.5968C36.09 28.6933 35.9987 28.7952 35.9181 28.9025C35.9127 28.9025 35.9127 28.9078 35.9074 28.9132C31.6626 33.2094 25.3009 34.0944 20.4007 31.4716L20.4222 31.4502H20.4168C19.4013 30.9084 18.4556 30.2165 17.5959 29.3745L16.9673 28.7469L15.0222 26.8053L8.57454 20.3637L17.5422 11.412C17.6443 11.3101 17.741 11.2082 17.8162 11.0956C17.827 11.0902 17.8323 11.0795 17.8377 11.0741C22.0824 6.79401 28.4388 5.91975 33.3283 8.54252L28.4388 13.4233H28.4334C26.209 12.887 23.7696 13.4984 22.0395 15.2523C20.3362 16.9794 19.7452 19.3769 20.2717 21.5705V21.5759C20.5511 22.772 21.1583 23.8983 22.0986 24.8208C23.0174 25.7219 24.1242 26.3119 25.2902 26.5854H25.2955C27.52 27.1111 29.9647 26.4996 31.6895 24.7511C33.3981 23.0294 33.9892 20.6212 33.4572 18.4329V18.4275L38.3414 13.5521L38.696 13.1981L45.1544 19.645L36.4124 28.3715ZM22.0395 15.2469C20.3362 16.974 19.7452 19.3715 20.2717 21.5652L28.4334 13.418C26.209 12.887 23.775 13.4984 22.0395 15.2469ZM33.4626 18.4329L25.2955 26.5854C27.52 27.1111 29.9647 26.4996 31.6895 24.7511C33.3981 23.0294 33.9892 20.6212 33.4626 18.4329ZM22.0395 15.2469C20.3362 16.974 19.7452 19.3715 20.2717 21.5652L28.4334 13.418C26.209 12.887 23.775 13.4984 22.0395 15.2469Z" fill="#FFE797"/>
<path d="M25.2919 26.5852L20.4292 31.4446H20.4239C19.4084 30.9028 18.4627 30.2109 17.603 29.3689L16.9744 28.7413L15.0293 26.7997L15.3785 26.4511L20.2734 21.5703C20.5528 22.7664 21.16 23.8927 22.1003 24.8152C23.0191 25.7217 24.1259 26.3117 25.2919 26.5852Z" fill="#FFE797"/>
<path opacity="0.36" d="M17.5441 11.4122L17.2539 11.7019C17.4312 11.4926 17.6193 11.2942 17.8181 11.0957L17.8396 11.0742C17.7482 11.1922 17.6461 11.3049 17.5441 11.4122Z" fill="#B78723"/>
<path opacity="0.36" d="M36.1886 28.5972L36.382 28.4092C36.2369 28.5757 36.0757 28.7369 35.9199 28.9035C36.0005 28.7961 36.0919 28.694 36.1886 28.5972Z" fill="#B78723"/>
<path d="M31.6905 24.7512C29.9604 26.4997 27.521 27.1111 25.2966 26.5855H25.2912C24.1253 26.312 23.0184 25.722 22.0996 24.8209C21.1593 23.8984 20.5522 22.772 20.2728 21.576V21.5706C19.7462 19.3769 20.3319 16.9794 22.0405 15.2524C23.776 13.4985 26.21 12.887 28.4345 13.4234H28.4398C29.6058 13.6969 30.718 14.2869 31.6314 15.188C32.5717 16.1159 33.1843 17.2369 33.4637 18.4329V18.4383C33.9848 20.6213 33.3992 23.0295 31.6905 24.7512Z" fill="#DBA360"/>
<path d="M41.3145 5.79106L41.207 5.68359H41.2124C41.25 5.71583 41.2876 5.75344 41.3145 5.79106Z" fill="#B78723"/>
<path d="M20.4069 31.466L17.5431 34.3194C17.5216 34.3408 17.5055 34.3569 17.4894 34.3676C16.1031 35.6978 13.9001 35.6817 12.5354 34.3247C12.53 34.3193 12.53 34.3194 12.5246 34.314C12.5031 34.2979 12.4817 34.2764 12.4709 34.2657C12.4548 34.2496 12.4387 34.2282 12.4279 34.2174L10.0208 31.8146H10.0154L1.04238 22.8682C0.343877 22.1763 0 21.2699 0 20.3635C0 19.4516 0.343877 18.5506 1.04238 17.8587L12.5193 6.39682C12.5354 6.38073 12.5461 6.37001 12.5622 6.35928C12.5784 6.33782 12.5999 6.32173 12.616 6.31101L12.6267 6.30028C14.0184 5.01303 16.1891 5.05058 17.5431 6.39682C18.8219 7.67334 18.9186 9.68467 17.8386 11.0685C17.8332 11.0738 17.8279 11.0845 17.8171 11.0899C17.7419 11.2079 17.6452 11.3098 17.5431 11.4064L17.2529 11.696L8.57005 20.3635L17.5914 29.3688C18.4565 30.2109 19.3914 30.9242 20.4069 31.466Z" fill="#DBA360"/>
<path d="M52.6932 22.1493L41.2109 33.6112C41.1787 33.6434 41.1464 33.6702 41.1088 33.7024C41.0981 33.7131 41.0873 33.7185 41.0766 33.7292C39.685 34.995 37.5357 34.9521 36.1871 33.6112C35.4993 32.9247 35.1447 32.0129 35.1447 31.1064C35.1447 30.3341 35.3972 29.551 35.9077 28.9128C35.9131 28.9074 35.9131 28.902 35.9184 28.902C35.999 28.7948 36.0904 28.6928 36.1871 28.5963L36.3805 28.4086L36.4128 28.371L45.1601 19.6392L38.7071 13.203L38.7017 13.1976L36.7244 11.2238L36.1978 10.6982L36.1334 10.6392C35.2737 9.79177 34.3549 9.07842 33.334 8.54206L33.6886 8.19343L36.1925 5.68866C37.5787 4.30487 39.8193 4.29951 41.2055 5.67794C41.2109 5.6833 41.2109 5.6833 41.2163 5.68866L41.3238 5.79594C41.3238 5.79594 41.3291 5.79594 41.3291 5.8013L41.4742 5.95148L43.7255 8.19343L52.6932 17.1398C54.0794 18.5236 54.0794 20.7655 52.6932 22.1493Z" fill="#DBA360"/>
</svg>
