<svg width="106" height="30" viewBox="0 0 106 30" fill="none" xmlns="http://www.w3.org/2000/svg">
<g clip-path="url(#clip0)">
<path d="M97.4594 10.6787C97.202 10.6787 96.9517 10.7319 96.7301 10.8573L89.7188 14.9062C89.2651 15.1677 88.9893 15.6614 88.9893 16.1867V24.27C88.9893 24.7948 89.2651 25.2879 89.7188 25.55L91.5498 26.6071C92.4395 27.0455 92.7674 27.0386 93.1723 27.0386C94.4894 27.0386 95.2415 26.2394 95.2415 24.8505V16.8713C95.2415 16.7586 95.1438 16.6779 95.0331 16.6779H94.1548C94.0423 16.6779 93.9465 16.7586 93.9465 16.8713V24.8505C93.9465 25.466 93.3051 26.0853 92.2644 25.5649L90.3589 24.4485C90.2915 24.4119 90.2397 24.3471 90.2397 24.27V16.1865C90.2397 16.11 90.2908 16.032 90.3589 15.9931L97.3553 11.9592C97.3869 11.9407 97.4229 11.931 97.4595 11.931C97.4961 11.931 97.532 11.9407 97.5637 11.9592L104.56 15.9933C104.627 16.0334 104.679 16.1077 104.679 16.1869V24.2702C104.679 24.3473 104.641 24.4264 104.575 24.4636L97.5637 28.4977C97.5037 28.5335 97.4209 28.5335 97.3553 28.4977L95.5541 27.426C95.5267 27.4111 95.496 27.4033 95.4648 27.4033C95.4336 27.4033 95.4029 27.4111 95.3755 27.426C94.8784 27.7077 94.7848 27.7404 94.3185 27.9022C94.2037 27.9424 94.0293 28.0046 94.3781 28.2002L96.7301 29.5843C96.9518 29.7122 97.2036 29.7791 97.4596 29.778C97.7156 29.7795 97.9674 29.7128 98.1889 29.5845L105.2 25.5502C105.654 25.2864 105.93 24.7951 105.93 24.2702V16.1867C105.93 15.6616 105.654 15.1688 105.2 14.9066L98.1889 10.8577C97.9692 10.7321 97.7172 10.6789 97.4596 10.6789L97.4594 10.6787Z" fill="#C7C7C7"/>
<path d="M99.3359 16.4551C97.3393 16.4551 96.1502 17.3048 96.1502 18.7179C96.1502 20.2506 97.3304 20.6718 99.2467 20.8614C101.539 21.0858 101.718 21.4225 101.718 21.8737C101.718 22.6564 101.094 22.9901 99.6189 22.9901C97.7657 22.9901 97.3585 22.5275 97.2222 21.6058C97.2061 21.5069 97.1297 21.427 97.0285 21.427H96.1205C96.0087 21.427 95.9121 21.5234 95.9121 21.6356C95.9121 22.8155 96.5539 24.2108 99.6189 24.2108C101.837 24.2108 103.117 23.34 103.117 21.8141C103.117 20.3017 102.083 19.8956 99.9313 19.6111C97.7568 19.3233 97.5495 19.1824 97.5495 18.6732C97.5495 18.2528 97.7254 17.6905 99.3359 17.6905C100.775 17.6905 101.306 18.0008 101.524 18.9709C101.543 19.062 101.624 19.1346 101.718 19.1346H102.626C102.682 19.1346 102.736 19.1003 102.775 19.0601C102.813 19.0173 102.84 18.9691 102.834 18.9114C102.694 17.2409 101.58 16.4551 99.3359 16.4551Z" fill="#C7C7C7"/>
<path d="M56.2392 0.0791977C56.1608 0.0792497 56.0838 0.0997145 56.0158 0.138577C55.9481 0.17815 55.892 0.23466 55.8528 0.302539C55.8137 0.370418 55.7929 0.447324 55.7925 0.52568V11.9137C55.7925 12.0254 55.7406 12.1255 55.6437 12.1816C55.5963 12.2093 55.5424 12.2238 55.4874 12.2238C55.4325 12.2238 55.3786 12.2093 55.3311 12.1816L53.4703 11.1099C53.3346 11.0314 53.1805 10.99 53.0237 10.99C52.8669 10.99 52.7129 11.0314 52.5771 11.1099L45.1489 15.397C44.8713 15.5573 44.7025 15.8654 44.7025 16.1861V24.7605C44.7025 25.0808 44.8715 25.3742 45.1489 25.5345L52.5771 29.8218C52.7128 29.9006 52.8669 29.942 53.0237 29.942C53.1806 29.942 53.3346 29.9006 53.4703 29.8218L60.8985 25.5345C61.0345 25.4562 61.1474 25.3434 61.2259 25.2075C61.3043 25.0716 61.3455 24.9174 61.3452 24.7605V3.38396C61.345 3.22336 61.3022 3.0657 61.2211 2.92707C61.1401 2.78843 61.0237 2.67379 60.8838 2.59485L56.4624 0.12368C56.3931 0.0849908 56.3162 0.0781632 56.2392 0.0791977ZM8.45442 10.7824C8.3129 10.788 8.17966 10.8128 8.05263 10.8864L0.62422 15.1737C0.488147 15.2519 0.375173 15.3647 0.296759 15.5006C0.218345 15.6366 0.177283 15.7908 0.177738 15.9478L0.192635 27.4551C0.192635 27.6151 0.275186 27.7638 0.415876 27.842C0.483326 27.8826 0.560532 27.904 0.63922 27.904C0.717909 27.904 0.795115 27.8826 0.862565 27.842L5.26884 25.3115C5.54794 25.1455 5.73022 24.8571 5.73022 24.5373V19.1633C5.73022 18.8426 5.89884 18.5484 6.17691 18.3891L8.05242 17.3025C8.18802 17.2237 8.34225 17.1825 8.49911 17.1833C8.65221 17.1833 8.80945 17.2216 8.94559 17.3025L10.8213 18.3891C10.9575 18.4672 11.0706 18.58 11.1491 18.716C11.2275 18.852 11.2686 19.0063 11.268 19.1633V24.5371C11.268 24.8569 11.4521 25.1474 11.7294 25.3113L16.1357 27.842C16.2031 27.8826 16.2803 27.904 16.359 27.904C16.4377 27.904 16.5149 27.8826 16.5823 27.842C16.6502 27.8027 16.7066 27.7463 16.7458 27.6784C16.785 27.6104 16.8057 27.5334 16.8058 27.4549L16.8203 15.9478C16.8212 15.7907 16.7803 15.6363 16.7018 15.5003C16.6234 15.3643 16.5102 15.2516 16.3738 15.1737L8.94559 10.8864C8.82001 10.8128 8.68635 10.7882 8.5438 10.7824H8.45442ZM75.2041 10.8864C75.049 10.8864 74.8969 10.9257 74.7577 11.0056L67.3295 15.2929C67.1934 15.3712 67.0805 15.4839 67.0021 15.6199C66.9236 15.7558 66.8825 15.91 66.8828 16.0669V24.6413C66.8828 24.9639 67.0644 25.256 67.3442 25.4155L74.713 29.6135C74.985 29.7686 75.3173 29.7804 75.5912 29.628L80.0571 27.1421C80.1988 27.0635 80.2946 26.9166 80.2952 26.7552C80.296 26.6766 80.2757 26.5993 80.2364 26.5312C80.1972 26.4631 80.1404 26.4068 80.072 26.3681L72.5991 22.0808C72.4593 22.0009 72.361 21.8393 72.361 21.6788V18.9995C72.361 18.8391 72.4603 18.6922 72.5991 18.6124L74.9213 17.2725C74.9892 17.2332 75.0662 17.2125 75.1447 17.2125C75.2231 17.2125 75.3001 17.2332 75.368 17.2725L77.69 18.6124C77.758 18.6515 77.8145 18.7078 77.8538 18.7758C77.893 18.8437 77.9136 18.9208 77.9135 18.9993V21.1131C77.9132 21.1916 77.9338 21.2687 77.973 21.3366C78.0122 21.4046 78.0687 21.4609 78.1367 21.5C78.2759 21.5805 78.4443 21.5807 78.5832 21.5L83.0343 18.9103C83.1701 18.8317 83.2829 18.7188 83.3613 18.583C83.4397 18.4471 83.481 18.293 83.481 18.1361V16.0671C83.481 15.7475 83.3114 15.4535 83.0343 15.2929L75.6508 11.0056C75.5151 10.9271 75.3609 10.886 75.2041 10.8866V10.8864ZM52.9938 17.2876C53.0327 17.2876 53.0782 17.2971 53.113 17.3172L55.6586 18.7909C55.7278 18.8309 55.7778 18.9047 55.7778 18.9844V21.9318C55.7778 22.0119 55.7282 22.0855 55.6586 22.1255L53.113 23.5992C53.079 23.6186 53.0405 23.6288 53.0014 23.6288C52.9622 23.6288 52.9238 23.6186 52.8898 23.5992L50.3443 22.1255C50.275 22.0853 50.2251 22.0119 50.2251 21.9318V18.9844C50.2251 18.9045 50.2752 18.8313 50.3443 18.7909L52.8898 17.3174C52.921 17.2979 52.9572 17.2877 52.994 17.2878V17.2876H52.9938Z" fill="#989898"/>
<path d="M30.7686 10.8418C30.6139 10.8418 30.4608 10.8811 30.3222 10.961L22.894 15.2334C22.6161 15.3933 22.4473 15.702 22.4473 16.0223V24.5967C22.4473 24.9174 22.6163 25.2104 22.894 25.3709L30.3222 29.658C30.4578 29.7368 30.6119 29.7783 30.7687 29.7783C30.9256 29.7783 31.0797 29.7368 31.2153 29.658L38.6435 25.3709C38.7795 25.2926 38.8924 25.1797 38.9708 25.0438C39.0492 24.9079 39.0903 24.7536 39.09 24.5967V16.0223C39.09 15.7016 38.9212 15.3933 38.6435 15.2334L31.2153 10.961C31.0796 10.8826 30.9254 10.8414 30.7686 10.8418ZM75.1891 18.4935C75.1595 18.4935 75.1267 18.4935 75.1 18.5084L73.6709 19.3419C73.6443 19.3567 73.622 19.3783 73.6063 19.4044C73.5906 19.4306 73.5821 19.4604 73.5816 19.4909V21.1283C73.5816 21.1899 73.6171 21.2464 73.6709 21.2772L75.1 22.0959C75.1535 22.127 75.2107 22.127 75.2636 22.0959L76.6926 21.277C76.7192 21.2622 76.7414 21.2406 76.7571 21.2145C76.7728 21.1884 76.7813 21.1587 76.782 21.1283V19.4907C76.7813 19.4603 76.7728 19.4305 76.7571 19.4045C76.7414 19.3784 76.7192 19.3568 76.6926 19.3419L75.2636 18.5081C75.2371 18.4926 75.2189 18.4937 75.1891 18.4937V18.4935Z" fill="#C7C7C7"/>
</g>
<defs>
<clipPath id="clip0">
<rect width="105.932" height="30" fill="white"/>
</clipPath>
</defs>
</svg>
