<svg width="16" height="16" viewBox="0 0 16 16" fill="none" xmlns="http://www.w3.org/2000/svg">
<path d="M13.9918 7.679C13.9303 6.49844 13.5197 5.3627 12.812 4.41575C12.5964 4.64797 12.3659 4.86593 12.122 5.06825C11.3727 5.69063 10.5354 6.19864 9.63725 6.57575C9.7625 6.83825 9.87725 7.0925 9.9785 7.3325V7.33475C10.0071 7.40181 10.0346 7.46932 10.061 7.53725C11.1965 7.40975 12.3935 7.45625 13.5538 7.613C13.7083 7.634 13.8538 7.6565 13.9918 7.679ZM6.953 2.0915C7.6839 3.12138 8.35791 4.19048 8.972 5.294C9.88925 4.9325 10.6475 4.4765 11.258 3.96875C11.4699 3.7941 11.6694 3.60489 11.855 3.4025C10.7757 2.49479 9.41023 1.998 8 2C7.64903 1.99976 7.2987 2.03013 6.953 2.09075V2.0915ZM2.18975 6.49775C2.70067 6.48486 3.21098 6.45409 3.71975 6.4055C4.94948 6.29551 6.16871 6.08938 7.36625 5.789C6.74038 4.70166 6.06467 3.64378 5.34125 2.61875C4.56854 3.00155 3.88719 3.54606 3.34343 4.21534C2.79967 4.88463 2.40621 5.66303 2.18975 6.49775ZM3.33725 11.7762C3.62825 11.351 4.01075 10.8725 4.5185 10.352C5.609 9.2345 6.896 8.3645 8.3855 7.8845L8.432 7.871C8.30825 7.598 8.192 7.35425 8.075 7.12475C6.698 7.526 5.2475 7.7765 3.80225 7.90625C3.09725 7.97 2.465 7.99775 2 8.00225C1.99867 9.37669 2.47122 10.7096 3.338 11.7762H3.33725ZM10.2538 13.5613C9.96453 12.1027 9.55513 10.6706 9.02975 9.2795C7.52825 9.82475 6.332 10.622 5.40725 11.573C5.03405 11.9498 4.70286 12.366 4.4195 12.8143C5.45361 13.5858 6.70976 14.0018 8 14C8.77243 14.0011 9.53777 13.8526 10.2538 13.5627V13.5613ZM11.6585 12.755C12.8295 11.8548 13.6271 10.5543 13.8988 9.1025C13.6438 9.03875 13.3205 8.975 12.965 8.9255C12.1746 8.81168 11.3726 8.80336 10.58 8.90075C11.0263 10.1599 11.3866 11.4478 11.6585 12.7557V12.755ZM8 15.5C3.85775 15.5 0.5 12.1423 0.5 8C0.5 3.85775 3.85775 0.5 8 0.5C12.1423 0.5 15.5 3.85775 15.5 8C15.5 12.1423 12.1423 15.5 8 15.5Z" fill="#86868B"/>
</svg>
