<svg width="16" height="14" viewBox="0 0 16 14" fill="none" xmlns="http://www.w3.org/2000/svg">
<path d="M15.6212 2.24219C15.0487 2.49546 14.4415 2.66179 13.8197 2.73569C14.475 2.34376 14.9655 1.72695 15.1997 1.00019C14.5847 1.36619 13.9105 1.62269 13.2077 1.76144C12.7357 1.25637 12.11 0.921411 11.4279 0.808628C10.7459 0.695844 10.0457 0.811557 9.43618 1.13778C8.82668 1.464 8.34202 1.98245 8.05757 2.61253C7.77311 3.24262 7.7048 3.94902 7.86323 4.62194C6.61606 4.55943 5.39598 4.23533 4.2822 3.67069C3.16842 3.10604 2.18583 2.31347 1.39823 1.34444C1.11945 1.82328 0.972951 2.36761 0.973734 2.92169C0.973734 4.00919 1.52723 4.96994 2.36873 5.53244C1.87074 5.51676 1.38371 5.38227 0.948234 5.14019V5.17919C0.948385 5.90346 1.19901 6.6054 1.65762 7.16598C2.11623 7.72657 2.7546 8.1113 3.46448 8.25494C3.0022 8.38022 2.51746 8.39868 2.04698 8.30894C2.24713 8.93236 2.63724 9.47759 3.16268 9.86827C3.68812 10.259 4.32258 10.4755 4.97723 10.4877C4.32659 10.9987 3.58162 11.3764 2.78489 11.5993C1.98817 11.8222 1.15533 11.8859 0.333984 11.7867C1.76776 12.7088 3.43681 13.1983 5.14148 13.1967C10.9112 13.1967 14.0665 8.41694 14.0665 4.27169C14.0665 4.13669 14.0627 4.00019 14.0567 3.86669C14.6709 3.42281 15.2009 2.87295 15.622 2.24294L15.6212 2.24219Z" fill="#86868B"/>
</svg>
