<svg width="132" height="30" viewBox="0 0 132 30" fill="none" xmlns="http://www.w3.org/2000/svg">
<path fill-rule="evenodd" clip-rule="evenodd" d="M52.6913 23.4807L49.2904 16.9551L45.8118 23.4807H42.0713L47.3748 15.0587L42.602 6.6885H46.3943L49.491 13.0477L52.8466 6.6885H56.3154L51.4131 15.0068L56.393 23.4807H52.6913ZM64.8184 23.4807V21.6531H64.7666C63.8433 23.0875 62.5361 23.8047 60.8448 23.8047C59.5419 23.8047 58.5151 23.4504 57.7644 22.7419C57.0137 22.0246 56.6384 21.0655 56.6384 19.8644C56.6384 17.2893 58.0837 15.8246 60.9743 15.4703L64.8443 14.9389C64.8443 13.1329 64.0073 12.2299 62.3333 12.2299C60.737 12.2299 59.2701 12.7224 57.9327 13.7075V11.0633C58.4332 10.7609 59.1493 10.4887 60.0812 10.2467C61.0218 10.0048 61.876 9.88383 62.644 9.88381C66.0609 9.88383 67.7693 11.6121 67.7694 15.0685V23.4807H64.8183H64.8184ZM61.9839 17.4016C61.0951 17.514 60.4695 17.7343 60.1071 18.0627C59.7533 18.3824 59.5765 18.8793 59.5765 19.5533C59.5765 20.1063 59.7792 20.56 60.1848 20.9143C60.5903 21.2599 61.121 21.4327 61.7767 21.4327C62.6655 21.4327 63.3989 21.126 63.9771 20.5124C64.5552 19.8989 64.8443 19.1342 64.8443 18.2182V17.0257L61.9839 17.4016ZM86.8524 23.4807V15.9888C86.8523 14.7531 86.6582 13.8372 86.27 13.2409C85.8903 12.636 85.2086 12.3336 84.225 12.3336C83.4397 12.3336 82.7796 12.6965 82.2447 13.4224C81.7097 14.1396 81.4422 15.008 81.4422 16.0277V23.4807H78.4524V15.7296C78.4524 13.4656 77.5852 12.3336 75.8508 12.3336C75.0398 12.3336 74.371 12.6749 73.8447 13.3576C73.3269 14.0402 73.0681 14.9303 73.0681 16.0277V23.4807H70.0783V10.2079H73.0681V12.2558H73.1199C74.0777 10.6745 75.4755 9.88383 77.3134 9.88381C78.1935 9.88383 78.9701 10.1171 79.6432 10.5838C80.3248 11.0417 80.8037 11.6769 81.0798 12.4891C82.0894 10.7523 83.5735 9.88383 85.5322 9.88381C88.4142 9.88383 89.8551 11.6812 89.8552 15.2759V23.4807H86.8524ZM99.7949 23.4807V21.6531H99.7431C98.8198 23.0875 97.5125 23.8047 95.8213 23.8047C94.5184 23.8047 93.4916 23.4504 92.7409 22.7419C91.9902 22.0246 91.6149 21.0655 91.6149 19.8644C91.6149 17.2893 93.0602 15.8246 95.9508 15.4703L99.8207 14.9389C99.8207 13.1329 98.9838 12.2299 97.3098 12.2299C95.7135 12.2299 94.2466 12.7224 92.9092 13.7075V11.0633C93.4096 10.7609 94.1258 10.4887 95.0577 10.2467C95.9982 10.0048 96.8525 9.88383 97.6204 9.88381C101.037 9.88383 102.746 11.6121 102.746 15.0685V23.4807H99.7948H99.7949ZM96.9603 17.4016C96.0715 17.514 95.446 17.7343 95.0836 18.0627C94.7298 18.3824 94.5529 18.8793 94.5529 19.5533C94.5529 20.1063 94.7557 20.56 95.1613 20.9143C95.5668 21.2599 96.0975 21.4327 96.7532 21.4327C97.642 21.4327 98.3754 21.126 98.9536 20.5124C99.5317 19.8989 99.8207 19.1342 99.8207 18.2182V17.0257L96.9603 17.4016ZM112.761 13.1242C112.269 12.8218 111.691 12.6706 111.027 12.6706C110.164 12.6706 109.46 13.0422 108.917 13.7853C108.382 14.5284 108.114 15.4963 108.114 16.6887V23.4807H105.125V10.2079H108.114V12.7872H108.166C108.805 10.9121 109.935 9.97456 111.557 9.97455C112.084 9.97456 112.485 10.035 112.761 10.156V13.1242H112.761ZM115.737 7.23963C115.228 7.23964 114.797 7.07546 114.443 6.74707C114.089 6.41009 113.912 5.99963 113.912 5.51571C113.912 5.01454 114.089 4.59544 114.443 4.25843C114.797 3.92143 115.228 3.75293 115.737 3.75291C116.255 3.75293 116.691 3.92576 117.045 4.27139C117.398 4.60841 117.575 5.02318 117.575 5.51571C117.575 5.99963 117.398 6.41009 117.045 6.74707C116.691 7.07546 116.255 7.23964 115.737 7.23963ZM114.21 23.4807V10.2079H117.2V23.4807H114.21ZM128.5 23.4807V16.0277C128.5 13.565 127.615 12.3336 125.846 12.3336C124.958 12.3336 124.211 12.6749 123.607 13.3576C123.012 14.0316 122.714 14.8914 122.714 15.9369V23.4807H119.724V10.2079H122.714V12.3336H122.766C123.732 10.7004 125.165 9.88383 127.063 9.88381C130.014 9.88383 131.49 11.6985 131.49 15.3277V23.4807H128.5H128.5ZM9.70256 0C8.79439 0.00193104 7.90539 0.518832 7.4482 1.30738L0.337547 13.6926C-0.112516 14.4833 -0.112516 15.5167 0.337547 16.3074L7.4482 28.6926C7.90543 29.4812 8.79439 29.9982 9.70256 30H23.9238C24.832 29.9981 25.721 29.4812 26.1782 28.6926L33.2888 16.3074C33.7389 15.5167 33.7389 14.4833 33.2888 13.6926L26.1782 1.30738C25.721 0.518832 24.832 0.00178622 23.9238 0H9.70256ZM9.83162 7.24551C9.85116 7.24358 9.87165 7.24358 9.89125 7.24551H12.3442C12.4528 7.24776 12.5581 7.31068 12.6123 7.40519L16.7735 14.8403C16.7944 14.8771 16.8079 14.918 16.813 14.9601C16.8182 14.918 16.8316 14.8771 16.8526 14.8403L21.0038 7.40519C21.0597 7.30782 21.17 7.24455 21.2818 7.24551H23.7348C23.952 7.24744 24.1147 7.52176 24.0129 7.71457L19.9511 15L24.0129 22.2755C24.1243 22.4694 23.9576 22.7564 23.7348 22.7545H21.2818C21.168 22.7535 21.0571 22.6859 21.0038 22.5848L16.8526 15.1497C16.8316 15.1129 16.8182 15.072 16.813 15.0299C16.8079 15.072 16.7944 15.113 16.7735 15.1497L12.6123 22.5848C12.5606 22.683 12.4547 22.75 12.3442 22.7545H9.89125C9.6684 22.7564 9.50178 22.4694 9.6132 22.2755L13.675 15L9.6132 7.71457C9.51584 7.53866 9.63463 7.28306 9.83162 7.24551Z" fill="#C7C7C7"/>
</svg>
